<svg id="Capa_1" data-name="Capa 1" xmlns="http://www.w3.org/2000/svg" xmlns:xlink="http://www.w3.org/1999/xlink" viewBox="0 0 512 512"><defs><style>.cls-1{fill:#bf1386;}.cls-2{fill:url(#linear-gradient);}.cls-3{fill:url(#linear-gradient-2);}.cls-4{fill:url(#linear-gradient-3);}.cls-5{fill:url(#linear-gradient-4);}.cls-6{stroke:#fff;stroke-miterlimit:10;stroke-width:3px;}</style><linearGradient id="linear-gradient" x1="39.2" y1="151.04" x2="332.09" y2="151.04" gradientUnits="userSpaceOnUse"><stop offset="0" stop-color="#7056fd"/><stop offset="1" stop-color="#3607a8"/></linearGradient><linearGradient id="linear-gradient-2" x1="33.2" y1="151.04" x2="326.09" y2="151.04" xlink:href="#linear-gradient"/><linearGradient id="linear-gradient-3" x1="-2.92" y1="256" x2="418.94" y2="256" xlink:href="#linear-gradient"/><linearGradient id="linear-gradient-4" x1="292.02" y1="212.07" x2="292.13" y2="212.07" xlink:href="#linear-gradient"/></defs><title>logo_pure</title><path class="cls-1" d="M179.95,429.27l0,0Z"/><path class="cls-2" d="M275.5,140.17a104.65,104.65,0,0,1-3.55,21.75h38.4a21.75,21.75,0,0,0,21.75-21.75H275.5Z"/><path class="cls-3" d="M246.36,140.17H205.84a21.75,21.75,0,0,0-21.75,21.75h54.35a119.92,119.92,0,0,0,5.69-14.14C245,145.2,245.71,142.67,246.36,140.17Z"/><path class="cls-4" d="M299,225.58h0l.39-.55a8.64,8.64,0,0,0,.55-7.85,8.39,8.39,0,0,0-7.85-5.1h0l-28.31.38c-5.73.17-11.47.38-17.2.49-1.09,0-1.74-.06-2-.34-.07-.21-.13-.41-.2-.62,0,0,0,0,0,0,.23-.3,17-21.76,24.6-50a104.65,104.65,0,0,0,3.55-21.75c1-19.8-4.37-41-23.07-59.67,0,0,8.53,26.33-.07,59.67-.64,2.5-1.38,5-2.22,7.61a119.92,119.92,0,0,1-5.69,14.14c-7.24,15.15-18.59,30.83-36.07,45.56l-2.22,1.84-.2.11a21,21,0,0,0-2.55,2c-.35.31-.69.62-1,.95a20.92,20.92,0,0,0,12.74,35.48v0c4.11.46,7.3.57,8.25.6h.34l11.69,0c3.42,0,6.84-.37,10.26-.38,3.68,0,4.05.61,2.4,3.77-1.31,2.5-2.78,4.91-4.18,7.36-.34.59-.7,1.18-1,1.78-8,14.66-15.07,29.83-22.62,44.74-1.65,3.25-3.21,6.55-4.85,10a2.09,2.09,0,0,0,2.38,2.93c5.18-1.27,10.17-2.73,15.23-4.14a2.08,2.08,0,0,1,2.43,2.92l-3.81,7.82h0a150.61,150.61,0,0,0-10.68,21.94,115,115,0,0,0-8.1,39.88c-.42,27.7,10.59,44.48,10.59,44.48s-17.38-61.57,61.48-140c1.21-1.2.07-3.31-1.63-3.33l-10.3-.13c-4.37,0-8.74,0-13.11,0-.57,0-1.32.27-1.65-.34s.3-1.1.63-1.56q10.33-14.57,20.69-29.11,11-15.49,22.09-31c.11-.13.22-.27.32-.42l.06-.08h0l0,0c.13-.18.26-.37.37-.57l-.39.55Z"/><path class="cls-5" d="M292.07,212.07h0Z"/><path class="cls-6" d="M231.91,215.66a20.93,20.93,0,0,0-28.75-6.34c-.88.72-1.77,1.44-2.68,2.15l0,0-1,.85a20.93,20.93,0,1,0,32.52,3.31Z"/><path class="cls-6" d="M292.07,212.07a8.63,8.63,0,0,0-.87,0l-.32,0-.55.09-.37.09-.47.13-.38.14-.43.17-.37.18-.39.2-.36.22-.36.24-.34.25-.33.27-.32.29-.29.29-.29.32-.26.32-.26.35-.22.34c-.08.13-.16.25-.23.38s-.12.24-.18.36-.14.27-.2.41-.1.25-.15.38-.11.29-.16.43-.07.26-.1.39-.09.3-.12.46,0,.24-.06.37a8.56,8.56,0,0,0-.1,1c0,.13,0,.25,0,.38s0,.31,0,.47,0,.29,0,.44,0,.19,0,.29a8.29,8.29,0,0,0,.19.93c0,.1,0,.21.08.31a8.44,8.44,0,0,0,.39,1l.14.28a8.61,8.61,0,0,0,.53.94l.07.11a8.68,8.68,0,0,0,.67.85l.23.25a8.62,8.62,0,0,0,.76.71l.34.25c.19.14.39.27.59.39l.51.29a8.3,8.3,0,0,0,.76.35l.49.18a8.12,8.12,0,0,0,1,.27l.27,0a9,9,0,0,0,.93.11l.3,0a8.63,8.63,0,0,0,1,0H293a8.48,8.48,0,0,0,1.1-.2l.28-.08c.27-.07.53-.16.78-.26l.31-.13q.39-.17.75-.37l.22-.12a8.58,8.58,0,0,0,.89-.61l.11-.1a8.59,8.59,0,0,0,.69-.62l.21-.22c.15-.16.28-.33.42-.5l.22-.3h0l.39-.55a8.64,8.64,0,0,0,.55-7.85,8.39,8.39,0,0,0-7.85-5.1h0Z"/></svg>